<svg width="380" height="380" viewBox="0 0 380 380" fill="none" xmlns="http://www.w3.org/2000/svg">
<path fill-rule="evenodd" clip-rule="evenodd" d="M137.815 169.045L114.778 201.429C112.821 204.181 114.782 208 118.153 208H260.854C264.221 208 266.175 204.176 264.225 201.424L237.802 164.136L225.347 171.44C225.118 178.125 219.641 183.475 212.918 183.475C206.049 183.475 200.48 177.892 200.48 171.004C200.48 170.655 200.495 170.31 200.523 169.969L180.559 155.317C178.417 157.068 175.683 158.118 172.704 158.118C169.18 158.118 165.998 156.648 163.735 154.287L137.815 169.045Z" fill="#078440"/>
<path fill-rule="evenodd" clip-rule="evenodd" d="M186.218 79.7415L137.993 147.608C136.591 149.581 137.161 152.332 139.231 153.582L143.577 156.205L160.31 146.677C160.282 146.338 160.268 145.994 160.268 145.647C160.268 138.76 165.836 133.177 172.705 133.177C179.574 133.177 185.142 138.76 185.142 145.647C185.142 146.518 185.053 147.367 184.884 148.187L204.054 162.257C206.31 159.958 209.448 158.533 212.919 158.533C216.907 158.533 220.457 160.416 222.733 163.342L240.545 152.896C241.925 151.497 242.166 149.244 240.973 147.558L192.98 79.7542C191.329 77.4222 187.873 77.4126 186.218 79.7415Z" fill="#00B453"/>
<path d="M59.2144 241.69H44.8184V285H53.6634V270.848H59.2144C67.9984 270.848 74.4034 264.504 74.4034 256.269C74.4034 248.034 67.9984 241.69 59.2144 241.69ZM59.0924 262.552H53.6634V249.986H59.0924C63.1184 249.986 65.8024 252.731 65.8024 256.269C65.8024 259.807 63.1184 262.552 59.0924 262.552Z" fill="#131722"/>
<path d="M87.9444 244.191C87.9444 241.263 85.5654 238.884 82.5764 238.884C79.7094 238.884 77.2694 241.263 77.2694 244.191C77.2694 247.119 79.7094 249.498 82.5764 249.498C85.5654 249.498 87.9444 247.119 87.9444 244.191ZM78.4284 285H86.7854V254.5H78.4284V285Z" fill="#131722"/>
<path d="M93.5902 285H101.947V270.116C101.947 264.26 104.875 261.454 108.718 261.454C112.195 261.454 114.086 264.138 114.086 268.53V285H122.443V267.127C122.443 259.197 118.051 253.829 110.67 253.829C106.705 253.829 103.533 255.537 101.947 257.977V254.5H93.5902V285Z" fill="#131722"/>
<path d="M126.935 269.75C126.935 279.388 134.011 285.671 143.1 285.671C149.505 285.671 154.446 282.926 157.252 278.839L151.03 274.203C149.688 276.277 146.943 278.046 143.161 278.046C139.135 278.046 135.536 275.789 135.048 271.702H157.862C157.984 270.421 157.984 269.567 157.984 268.835C157.984 258.953 150.969 253.829 142.978 253.829C133.706 253.829 126.935 260.722 126.935 269.75ZM142.734 260.722C145.845 260.722 148.895 262.43 149.627 266.029H135.353C136.146 262.308 139.623 260.722 142.734 260.722Z" fill="#131722"/>
<path d="M173.213 277.985C176.324 282.743 182.119 285.732 189.012 285.732C197.979 285.732 204.14 280.425 204.201 272.678C204.201 266.151 200.236 262.125 193.892 259.807L190.415 258.526C185.84 256.879 183.705 255.72 183.705 253.097C183.705 250.535 186.511 249.254 189.5 249.254C192.489 249.254 195.173 250.474 197.247 252.975L203.103 246.936C199.382 242.788 194.746 240.958 189.439 240.958C181.021 240.958 174.799 245.777 174.799 253.951C174.799 259.868 178.52 263.894 185.474 266.334L189.134 267.615C193.404 269.079 195.173 270.787 195.173 273.227C195.173 275.728 192.855 277.436 189.378 277.436C185.84 277.436 182.119 275.545 179.984 272.312L173.213 277.985Z" fill="#131722"/>
<path d="M237.891 276.887L230.632 272.983C229.412 275.789 226.789 277.863 223.434 277.863C219.042 277.863 215.687 274.447 215.687 269.75C215.687 265.053 219.042 261.637 223.434 261.637C226.789 261.637 229.412 263.711 230.632 266.517L237.891 262.613C235.268 257.367 229.778 253.829 223.434 253.829C214.406 253.829 207.269 260.539 207.269 269.75C207.269 278.961 214.406 285.671 223.434 285.671C229.778 285.671 235.268 282.133 237.891 276.887Z" fill="#131722"/>
<path d="M242.016 285H250.373V270.421C250.373 265.419 252.996 262.308 256.961 262.308C258.303 262.308 259.462 262.552 260.743 262.979V254.5C259.706 254.195 258.791 254.134 257.937 254.134C254.521 254.134 251.41 256.391 250.373 259.38V254.5H242.016V285Z" fill="#131722"/>
<path d="M274.378 244.191C274.378 241.263 271.999 238.884 269.01 238.884C266.143 238.884 263.703 241.263 263.703 244.191C263.703 247.119 266.143 249.498 269.01 249.498C271.999 249.498 274.378 247.119 274.378 244.191ZM264.862 285H273.219V254.5H264.862V285Z" fill="#131722"/>
<path d="M280.024 297.749H288.381V281.584C289.784 283.536 293.017 285.671 297.226 285.671C305.339 285.671 311.561 278.412 311.561 269.75C311.561 261.088 305.339 253.829 297.226 253.829C293.017 253.829 289.784 255.964 288.381 257.916V254.5H280.024V297.749ZM303.082 269.75C303.082 274.508 299.971 278.046 295.396 278.046C290.821 278.046 287.71 274.508 287.71 269.75C287.71 264.992 290.821 261.454 295.396 261.454C299.971 261.454 303.082 264.992 303.082 269.75Z" fill="#131722"/>
<path d="M335.866 284.695V277.314C334.89 277.68 333.792 277.863 332.45 277.863C328.851 277.863 327.265 276.399 327.265 272.678V261.82H335.866V254.5H327.265V246.021H318.908V254.5H312.747V261.82H318.908V274.325C318.908 281.767 324.093 285.366 330.559 285.366C332.877 285.366 334.524 285.122 335.866 284.695Z" fill="#131722"/>
<path d="M347.9 285.5H349.3V280.2L351.54 283.36L353.76 280.2V285.5H355.16V277.8H353.8L351.54 281L349.26 277.8H347.9V285.5ZM342.92 285.5H344.36V279.2H346.6V277.8H340.68V279.2H342.92V285.5Z" fill="#131722"/>
</svg>
